<svg width="300" height="200" viewBox="0 0 300 200" fill="none" xmlns="http://www.w3.org/2000/svg">
  <defs>
    <linearGradient id="vipGrad" x1="0%" y1="0%" x2="100%" y2="100%">
      <stop offset="0%" style="stop-color:#fbbf24;stop-opacity:1" />
      <stop offset="100%" style="stop-color:#f59e0b;stop-opacity:1" />
    </linearGradient>
  </defs>
  
  <!-- Crown -->
  <path d="M150 40 L130 70 L150 60 L170 70 Z" fill="url(#vipGrad)"/>
  <circle cx="150" cy="45" r="3" fill="#fbbf24"/>
  <circle cx="140" cy="50" r="2" fill="#fbbf24"/>
  <circle cx="160" cy="50" r="2" fill="#fbbf24"/>
  
  <!-- Shield -->
  <path d="M150 80 L120 90 L120 140 Q120 160 150 170 Q180 160 180 140 L180 90 Z" fill="url(#vipGrad)" opacity="0.9"/>
  <path d="M150 90 L135 95 L135 130 Q135 145 150 155 Q165 145 165 130 L165 95 Z" fill="white"/>
  
  <!-- Star in shield -->
  <path d="M150 110 L152 116 L158 116 L153 120 L155 126 L150 122 L145 126 L147 120 L142 116 L148 116 Z" fill="url(#vipGrad)"/>
  
  <!-- Sparkles -->
  <circle cx="110" cy="60" r="2" fill="#fbbf24" opacity="0.8"/>
  <circle cx="190" cy="70" r="1.5" fill="#fbbf24" opacity="0.6"/>
  <circle cx="200" cy="120" r="2" fill="#fbbf24" opacity="0.7"/>
  <circle cx="100" cy="130" r="1" fill="#fbbf24" opacity="0.5"/>
</svg>